# xmcd
#
# Track frame offsets:
#	150
#	13876
#	26605
#	40351
#	51783
#	62220
#	72590
#	86359
#	97331
#	107934
#	119009
#	129614
#
# Disc length: 1871 seconds
#
# Revision: 1
# Processed by: cddbd v1.5.2PL0 Copyright (c) Steve Scherf et al.
# Submitted via: audiograbber 1.83.01
#
DISCID=b6074d0c
DTITLE=Johnny Cash - The Junkie And The Juicehead Minus Me
DYEAR=1974
DGENRE=Country
TTITLE0=The Junkie And The Juicehead, Minus Me
TTITLE1=Don't Take Your Guns To Town
TTITLE2=Broken Freedom Song
TTITLE3=I Do Believe
TTITLE4=Ole Slew Foot
TTITLE5=Keep On The Sunny Side
TTITLE6=Father And Daughter (Father And Son)
TTITLE7=Crystal Chandaliers And Burgundy
TTITLE8=Friendly Gates
TTITLE9=Billy And Rex And Oral And Bob
TTITLE10=Jesus
TTITLE11=Lay Back With My Woman
EXTD=
EXTT0=
EXTT1=
EXTT2=
EXTT3=
EXTT4=
EXTT5=
EXTT6=
EXTT7=
EXTT8=
EXTT9=
EXTT10=
EXTT11=
PLAYORDER=
